<svg xmlns="http://www.w3.org/2000/svg" xmlns:xlink="http://www.w3.org/1999/xlink" width="527.336" height="299.305" xmlns:v="https://vecta.io/nano"><style><![CDATA[.B{fill:none}.C{stroke:#2297ff}.D{fill:#2297ff}.E{stroke-miterlimit:10}.F{stroke-linecap:round}.G{fill:#001446}.H{stroke-linejoin:round}.I{clip-path:url(#K)}]]></style><defs><linearGradient id="A" y1=".5" x2="1" y2=".5"><stop offset="0" stop-color="#212222" stop-opacity=".502"/><stop offset=".502" stop-color="#dbdbdb" stop-opacity=".502"/><stop offset="1" stop-opacity=".502"/></linearGradient><linearGradient id="B" x1=".5" y1="1" x2=".5"><stop offset="0" stop-color="#2c296e"/><stop offset=".293" stop-color="#5d61a9"/><stop offset=".979" stop-color="#9b99cb"/></linearGradient><linearGradient id="C" y1=".5" x2="1" y2=".5"><stop offset="0" stop-color="#d7d3e9"/><stop offset=".962" stop-color="#dedfec"/><stop offset="1" stop-color="#dbdbdb" stop-opacity=".502"/></linearGradient><linearGradient id="D" x1=".5" y1="1" x2=".5"><stop offset="0" stop-color="#dfe0e0"/><stop offset=".091" stop-color="#cbcccc"/><stop offset=".41" stop-color="#8a8a8a"/><stop offset=".679" stop-color="#5b5b5b"/><stop offset=".883" stop-color="#3d3d3d"/><stop offset="1" stop-color="#333"/></linearGradient><linearGradient id="E" x1="-128.541" x2="-128.541" y2="0" xlink:href="#D"/><linearGradient id="F" x1="-134.829" x2="-134.829" y2="0" xlink:href="#D"/><linearGradient id="G" y1=".5" x2="1" y2=".5"><stop offset="0" stop-color="#b8bfd6"/><stop offset=".462" stop-color="#b6bcd4"/><stop offset=".654" stop-color="#afb5d0"/><stop offset=".796" stop-color="#a3a9c9"/><stop offset=".913" stop-color="#9398bf"/><stop offset="1" stop-color="#8285b5"/></linearGradient><linearGradient id="H" y1=".5" x2="1" y2=".5"><stop offset="0" stop-color="#c7c8d5"/><stop offset=".464" stop-color="#c5c5d3"/><stop offset=".657" stop-color="#bebed0"/><stop offset=".799" stop-color="#b1b2ca"/><stop offset=".916" stop-color="#a0a1c1"/><stop offset="1" stop-color="#8f8fb8"/></linearGradient><linearGradient id="I" x1=".5" y1="1" x2=".5"><stop offset="0" stop-color="#bfbfbf"/><stop offset=".176" stop-color="#b1b1ba"/><stop offset=".509" stop-color="#8c8dac"/><stop offset=".96" stop-color="#515397"/><stop offset="1" stop-color="#4c4e96"/></linearGradient><linearGradient id="J" y1=".5" x2="1" y2=".5"><stop offset="0" stop-color="#fff"/><stop offset="1" stop-color="#dbdbdb" stop-opacity=".502"/></linearGradient><clipPath id="K"><path d="M7941.085 2170.32l.011-.439v-.049-.071-.043a.48.48 0 0 0-.017-.081.29.29 0 0 0-.013-.039.2.2 0 0 0-.019-.029c-.007-.01-.014-.019-.023-.027s-.016-.014-.025-.02-.026-.015-.04-.02l-.028-.011c-.03-.009-.06-.015-.091-.019h-30.06v-107.679-.908c-.003-.532-.219-1.041-.6-1.412a2.25 2.25 0 0 0-1.733-.637h-33.279 0-3.982-113.722-.02-33.259a2.25 2.25 0 0 0-1.733.637 1.99 1.99 0 0 0-.6 1.412v.908 21.39 20.515.427 65.346h-28.823c-.138 0-.238.112-.236.377v.119.033l-.014 2.083h0v1.449h0a.2.2 0 0 0 .069.068l.382.176 2.836 1.127 3.934 1.327c.412.14 8.28 2.522 9.762 2.522q106.251 0 212.5 0c2.82 0 11.223-2.677 11.416-2.746q.584-.21 1.164-.432l4.7-1.824h.011l.658-.21h.893v-1.449h-.008c-.019-.465-.023-1.302-.011-1.771z" transform="translate(-7692.761 -2058.835)" class="B"/></clipPath><linearGradient id="L" x1=".474" y1="-.055" x2=".822" y2="1.021"><stop offset="0" stop-color="#fff" stop-opacity=".8"/><stop offset=".096" stop-color="#fff" stop-opacity=".612"/><stop offset=".196" stop-color="#fff" stop-opacity=".451"/><stop offset=".301" stop-color="#fff" stop-opacity=".31"/><stop offset=".412" stop-color="#fff" stop-opacity=".196"/><stop offset=".529" stop-color="#fff" stop-opacity=".11"/><stop offset=".656" stop-color="#fff" stop-opacity=".047"/><stop offset=".801" stop-color="#fff" stop-opacity=".012"/><stop offset="1" stop-color="#fff" stop-opacity="0"/></linearGradient><path id="M" d="M.091 270.564h246.992l.016.051-.323.159q-2.355.917-4.713 1.828l-1.164.432c-.193.07-8.6 2.746-11.416 2.747q-106.251.009-212.5 0c-1.481 0-9.35-2.383-9.762-2.522l-3.933-1.327c-.958-.343-1.893-.748-2.836-1.127-.13-.052-.255-.117-.382-.176z"/><path id="N" d="M226.5 273.101l1.4-.508h-.562l-.843.359h-18.573l-.2.185"/><path id="O" d="M224.534 273.863l1.4-.508h-.562l-.842.359h-17.45l-.2.185"/><path id="P" d="M65 238.714l4.317-.7v10.253h-2.5v-7.5l-1.819.221z"/><path id="Q" d="M100.29 246.873c-.002.408-.166.798-.456 1.085s-.682.447-1.09.445-.801-.162-1.089-.453-.447-.685-.441-1.094c.009-.841.689-1.521 1.53-1.53a1.55 1.55 0 0 1 1.546 1.547z"/></defs><g class="B E"><path stroke="#fff" d="M424.238 298.801l-82.715-.632" class="F"/><path d="M44.087 96.38l35.508 85.22m329.719-67.973l28.407-80.147m-48.697 122.757l88.263-10.146" class="C"/></g><path d="M465.096 198.339C465.096 88.8 376.296 0 266.756 0S68.416 88.8 68.416 198.339z" fill="#f5f5f5"/><path d="M307.276 4.147a17.17 17.17 0 0 1 5.623 2.672c5.049 3.92 4.738 10.939 7.2 16.416 6.769 15.049 28.016 22.436 23.048 43.157-1.849 7.709-9.938 9.923-16.251 13.68-7.764 4.622-18.981 16.518-29.076 14.874-4.425-.721-8.3-4.984-12.522-6.66-5.609-2.226-11.962-2.758-17.9-2.84-10.8-.149-22.007-.321-31.806 4.885a165.83 165.83 0 0 0-20.144 12.685c-6.641 4.91-10.208 11.982-18.92 12.867-6 .609-10.845-.024-14.051 6.072-3.42 6.5-2.1 14.89 3.905 19.121 5.959 4.2 10.844 2.625 17.586 3.216 7.127.624 8.265 6.148 12.159 11.649 11.523 16.275 28 15.292 44.826 21.324 7.607 2.727 10.6-.074 7.777-7.8-1.629-4.462-10.89-12.287-9.162-16.907 3.928-10.5 21.493 11.332 25.7 14.544 9.154 6.99 17.49 13.994 28.766 6.141 10.9-7.59 31.078 4.553 21.336 17.227a28.77 28.77 0 0 1-9.9 7.866h110.86c3.682-3.634 7.446-7.488 11.624-9.946 5.224-3.071 11.156-2.132 16.8-1.622-5.207-90.462-71.032-164.673-157.478-182.621zm-92.418 194.192c-9.7-8.656-19.3-17.227-31.705-22.286-14.877-6.067-25.021.655-37.187 8.841-6.278 4.225-13.224 8.58-19.723 13.445zM91.735 104.972c2.068-1.217 4.037-2.594 5.89-4.118 7.069-6.017 12.339-14.209 19.052-20.817 11.536-11.356 20.742-26.166 35.241-34 8.03-4.341 25.2-31.323 35.139-21.762 4.557-.96 11.563.648 10.181 7.743-1.461 7.5-9.323 8.62-14.918 10.639-8.48 3.059-36.246 22.47-26.2 33.223 3.051-.857 3.688-4.046 6.441-5.51 2.942-1.565 4.516-.668 7.59-.327 6.672.738 13.49-.371 20.124.377 7.347.829 15.911 1.868 23.164 0 5.908-1.521 7.841-6.424 12.836-9.334 2.785-1.623 5.528-.262 8.132-1.158 3.268-1.123 5.971-3.69 8.152-6.417 3.63-4.539 11.055-12.25 10.087-18.111-1.188-7.194-9.3-15.7-14.029-20.985-2.317-2.59-5.909-5.252-6.286-8.913-.064-.859.02-1.723.246-2.554A198.56 198.56 0 0 0 91.735 104.972zm103.439-26.964c-1.184-4.622-2.777-.181-4.244 1.35l-4.43 4.888c-.306 4.8 11.541 3.326 14.644 3.129 4.5-7.918-7.968-3.41-5.97-10.72" fill="#cecece"/><g class="D"><circle cx="47.131" cy="93.336" r="9.131"/><circle cx="480.014" cy="144.741" r="9.131"/><path d="M364.675 61.891c0 5.043-4.088 9.131-9.131 9.131s-9.131-4.088-9.131-9.131 4.088-9.131 9.131-9.131a9.13 9.13 0 0 1 9.131 9.131z"/></g><circle cx="15.218" cy="15.218" r="15.218" transform="matrix(.707107 -.707107 .707107 .707107 419.233 27.676)" class="B C"/><circle cx="440.754" cy="27.676" r="9.131" class="D"/><path d="M269.298 115.941a15.22 15.22 0 0 1-15.219 15.217 15.22 15.22 0 0 1-15.217-15.218 15.22 15.22 0 0 1 15.218-15.218c4.036 0 7.907 1.603 10.761 4.457s4.457 6.725 4.457 10.762z" class="B C E"/><circle cx="254.082" cy="115.939" r="9.131" class="D"/><circle cx="95.817" cy="25.647" r="15.218" class="B C"/><circle cx="95.817" cy="25.647" r="9.131" class="D"/><path d="M115.094 148.408a15.22 15.22 0 0 1-15.222 15.214A15.22 15.22 0 0 1 84.658 148.4a15.22 15.22 0 0 1 15.222-15.214c4.036.001 7.907 1.605 10.76 4.46s4.455 6.726 4.454 10.762z" class="B C E"/><circle cx="99.876" cy="148.405" r="9.131" class="D"/><g class="B C E"><path d="M95.817 25.647l4.058 122.757-52.741-55.067 203.918 21.305zm261.757 37.254l124.785 82.176-228.277-29.137 101.462-54.05 85.21-34.21"/><path d="M355.202 65.944l-8.789 134.926M96.841 152.179L79.594 200.87" class="F"/></g><path fill="#9d0001" d="M33.832 159.187h181.647v106.37H33.832z"/><path d="M218.011 157.917a1.99 1.99 0 0 0-.6-1.412c-.459-.451-1.09-.682-1.732-.637h-33.28 0-3.981H64.695h-.019-33.259a2.25 2.25 0 0 0-1.733.637 1.99 1.99 0 0 0-.6 1.412v.908 113.414a3.93 3.93 0 0 0 .419 1.624h188.1c.254-.505.397-1.059.418-1.624V158.825l-.01-.908zm-5.333 103.857H34.319V161.18h178.359z" class="G"/><use xlink:href="#M" fill="#f2f2f2"/><path d="M.091 270.564h246.992l.016.051-.323.159q-2.355.917-4.713 1.828l-1.164.432c-.193.07-8.6 2.746-11.416 2.747q-106.251.009-212.5 0c-1.481 0-9.35-2.383-9.762-2.522l-3.933-1.327c-.958-.343-1.893-.748-2.836-1.127-.13-.052-.255-.117-.382-.176z" fill="url(#A)"/><path d="M0 270.564h247.439l-.658.21-4.712 1.828-1.164.432c-.193.07-8.6 2.746-11.416 2.747q-106.252.009-212.5 0c-1.481 0-9.35-2.383-9.762-2.522l-3.934-1.327c-.957-.343-1.893-.748-2.836-1.127-.13-.052-.255-.117-.382-.176a.2.2 0 0 1-.075-.065z" fill="url(#B)"/><path fill="url(#C)" d="M0 269.115h248.327v1.449H0z"/><g fill="url(#D)"><path d="M227.771 272.594h-19.413l-.607.508h18.469z"/><path d="M225.949 273.356h-18.5l-.606.508h17.694z"/></g><g fill="#b0b4d7"><use xlink:href="#N"/><use xlink:href="#O"/></g><path d="M19.169 272.594h19.413l.606.508H20.719z" fill="url(#E)"/><path d="M20.994 273.356h18.5l.606.508H22.406z" fill="url(#F)"/><path d="M20.439 273.101l-1.4-.508h.562l.843.359h18.571l.326.185" fill="url(#G)"/><path d="M22.405 273.863l-1.4-.508h.562l.842.359 17.45-.105.243.252" fill="url(#H)"/><path fill="url(#I)" d="M118.775 268.787h9.898v.761h-9.898z"/><path d="M248.07 266.504H.288c-.141 0-.271.112-.271.377v.152l-.016 2.393 119.889.168a.62.62 0 0 1 .663-.805h7.106c.761 0 .761.761.664.8l119.5-.158h.5v-2.081c.016-.642.062-.806-.253-.846z" class="G"/><path d="M248.335 267.011c.009-.362-.015-.475-.265-.508H.253c-.138 0-.237.112-.236.377v.131z" opacity=".47" fill="url(#J)"/><g transform="translate(0 155.867)" class="I"><path d="M160.741-2.899H147.5l70.6 135.766 11.307.464h0l-1.384-136.23z" opacity=".5" fill="url(#L)" style="mix-blend-mode:screen"/></g><g fill="#fff"><use xlink:href="#P"/><path d="M75.778 248.267l1.343-2.295.68-1.088a2 2 0 0 1-.578.069 3.23 3.23 0 0 1-2.361-.968c-.62-.633-.953-1.495-.92-2.381a3.58 3.58 0 0 1 1.134-2.64 3.59 3.59 0 0 1 2.708-.96 3.47 3.47 0 0 1 3.688 3.57c-.076 1.276-.505 2.506-1.241 3.552l-1.836 3.141zm.561-6.731c-.03.388.107.771.376 1.053s.645.437 1.034.426a1.37 1.37 0 0 0 1.394-1.5 1.36 1.36 0 0 0-1.394-1.444 1.37 1.37 0 0 0-1.406 1.465zm16.183 4.504v2.227h-7.021v-1.853c1.001-.824 1.954-1.703 2.856-2.634a3.56 3.56 0 0 0 1.207-2.295c0-.731-.493-1.156-1.343-1.156a4.2 4.2 0 0 0-2.533 1.122v-2.38c.902-.731 2.039-1.112 3.2-1.071 2.057 0 3.383 1.19 3.383 3.043 0 1.717-.969 3.094-3.468 5z"/><use xlink:href="#Q"/><path d="M103.643 238.714l4.317-.7v10.253h-2.5v-7.5l-1.817.225zm14.752-.547l-1.342 2.3-.681 1.088a2.01 2.01 0 0 1 .579-.068 3.23 3.23 0 0 1 2.361.968 3.22 3.22 0 0 1 .919 2.38c.007.999-.404 1.956-1.133 2.64a3.58 3.58 0 0 1-2.708.96 3.47 3.47 0 0 1-3.689-3.569c.076-1.277.505-2.507 1.241-3.553l1.836-3.145zm-3.365 6.748a1.36 1.36 0 0 0 1.394 1.445 1.37 1.37 0 0 0 1.41-1.462c.03-.388-.107-.771-.376-1.053s-.645-.437-1.034-.426a1.37 1.37 0 0 0-1.394 1.499zm16.353.598c0 1.717-1.462 2.924-3.569 2.924s-3.57-1.207-3.57-2.924a2.4 2.4 0 0 1 1.683-2.329 2.45 2.45 0 0 1-1.326-2.294c.006-.822.357-1.604.969-2.154s1.426-.817 2.244-.736a2.9 2.9 0 0 1 3.195 2.89 2.45 2.45 0 0 1-1.291 2.294c1.005.329 1.679 1.272 1.665 2.329zm-4.691-.136a1.02 1.02 0 0 0 1.138 1.037 1.02 1.02 0 0 0 1.105-1.037 1.05 1.05 0 0 0-.319-.793c-.214-.207-.505-.315-.802-.295a1.05 1.05 0 0 0-1.122 1.088zm.119-4.334a.94.94 0 0 0 .274.745.95.95 0 0 0 .745.274c.271.013.535-.092.723-.287a.95.95 0 0 0 .264-.732c.019-.271-.08-.536-.272-.728s-.457-.291-.728-.272c-.272-.021-.539.078-.732.27a.94.94 0 0 0-.274.73z"/><use xlink:href="#Q" x="38.709"/><use xlink:href="#P" x="77.349"/><path d="M154.724 246.873a1.54 1.54 0 0 1-1.547 1.53 1.53 1.53 0 0 1-1.53-1.547c.009-.841.689-1.521 1.53-1.53.853.003 1.544.694 1.547 1.547z"/><use xlink:href="#P" x="93.074"/><path d="M175.243 243.236c0 3.093-1.615 5.2-4.012 5.2-2.431 0-4.028-2.108-4.028-5.27 0-3.042 1.648-5.167 4.028-5.167 2.397.001 4.012 2.109 4.012 5.237zm-5.525.033c0 1.921.544 3.026 1.513 3.026s1.513-1.1 1.513-3.043c0-1.988-.544-3.11-1.513-3.11-.988 0-1.513 1.104-1.513 3.125zm9.725-4.555l4.318-.7v10.253h-2.5v-7.5l-1.819.221z"/></g><g stroke="#fff" stroke-width="3" class="B H"><circle cx="124.345" cy="198.924" r="8.384"/><path d="M153.691 198.924s-13.14 14.673-29.346 14.673S95 198.924 95 198.924s13.14-14.673 29.346-14.673 29.345 14.673 29.345 14.673z"/></g><path fill="#2297fd" d="M312.832 159.187h181.647v106.37H312.832z"/><path d="M497.011 157.917a1.99 1.99 0 0 0-.6-1.412c-.459-.451-1.09-.682-1.732-.637h-33.28 0-3.981-113.723-.019-33.259a2.25 2.25 0 0 0-1.733.637 1.99 1.99 0 0 0-.6 1.412v.908 113.414a3.93 3.93 0 0 0 .419 1.624h188.1c.254-.505.397-1.059.418-1.624V158.825l-.01-.908zm-5.333 103.857H313.319V161.18h178.359z" class="G"/><use xlink:href="#M" x="279" fill="#f2f2f2"/><path d="M279.091 270.564h246.992l.016.051-.323.159q-2.355.917-4.713 1.828l-1.164.432c-.193.07-8.6 2.746-11.416 2.747q-106.251.009-212.5 0c-1.481 0-9.35-2.383-9.762-2.522l-3.933-1.327c-.958-.343-1.893-.748-2.836-1.127-.13-.052-.255-.117-.382-.176z" fill="url(#A)"/><path d="M279 270.564h247.439l-.658.21-4.712 1.828-1.164.432c-.193.07-8.6 2.746-11.416 2.747q-106.252.009-212.5 0c-1.481 0-9.35-2.383-9.762-2.522l-3.934-1.327c-.957-.343-1.893-.748-2.836-1.127-.13-.052-.255-.117-.382-.176a.2.2 0 0 1-.075-.065z" fill="url(#B)"/><path fill="url(#C)" d="M279 269.115h248.327v1.449H279z"/><g fill="url(#D)"><path d="M506.771 272.594h-19.413l-.607.508h18.469z"/><path d="M504.949 273.356h-18.5l-.606.508h17.694z"/></g><g fill="#b0b4d7"><use xlink:href="#N" x="279"/><use xlink:href="#O" x="279"/></g><path d="M298.169 272.594h19.413l.606.508h-18.469z" fill="url(#E)"/><path d="M299.994 273.356h18.5l.606.508h-17.694z" fill="url(#F)"/><path d="M299.439 273.101l-1.4-.508h.562l.843.359h18.571l.326.185" fill="url(#G)"/><path d="M301.405 273.863l-1.4-.508h.562l.842.359 17.45-.105.243.252" fill="url(#H)"/><path fill="url(#I)" d="M397.775 268.787h9.898v.761h-9.898z"/><path d="M527.07 266.504H279.288c-.141 0-.271.112-.271.377v.152l-.016 2.393 119.889.168a.62.62 0 0 1 .663-.805h7.106c.761 0 .761.761.664.8l119.5-.158h.5v-2.081c.016-.642.062-.806-.253-.846z" class="G"/><path d="M527.335 267.011c.009-.362-.015-.475-.265-.508H279.253c-.138 0-.237.112-.236.377v.131z" opacity=".47" fill="url(#J)"/><g transform="translate(279 155.867)" class="I"><path d="M160.741-2.899H147.5l70.6 135.766 11.307.464h0l-1.384-136.23z" opacity=".5" fill="url(#L)" style="mix-blend-mode:screen"/></g><path d="M357.201 238.45a.92.92 0 0 0-1.264-.307l-2.529 1.539v-2.961a.92.92 0 0 0-.919-.92.92.92 0 0 0-.919.92v2.962l-2.529-1.539a.92.92 0 0 0-1.263.307.92.92 0 0 0 .307 1.263l2.636 1.6-2.636 1.6a.92.92 0 0 0-.307 1.264.92.92 0 0 0 1.264.307l2.529-1.539v2.961a.92.92 0 0 0 .92.92.92.92 0 0 0 .919-.92v-2.954l2.529 1.539a.92.92 0 0 0 1.264-.307.92.92 0 0 0-.307-1.264l-2.635-1.6 2.635-1.6a.92.92 0 0 0 .308-1.271zm14.41 0a.92.92 0 0 0-1.264-.307l-2.529 1.539v-2.961a.92.92 0 0 0-.919-.92.92.92 0 0 0-.919.92v2.962l-2.529-1.539a.92.92 0 0 0-1.412.761.92.92 0 0 0 .457.809l2.635 1.6-2.635 1.6a.92.92 0 0 0-.308 1.263.92.92 0 0 0 1.263.308l2.529-1.539v2.961a.92.92 0 0 0 .92.92.92.92 0 0 0 .919-.92v-2.954l2.529 1.539a.92.92 0 0 0 .956-1.571l-2.636-1.6 2.636-1.6a.92.92 0 0 0 .308-1.271zm-28.044 0a.92.92 0 0 0-1.264-.307l-2.529 1.539v-2.961a.92.92 0 0 0-.92-.919.92.92 0 0 0-.919.919v2.962l-2.529-1.539a.92.92 0 0 0-1.412.761.92.92 0 0 0 .457.809l2.635 1.6-2.635 1.6a.92.92 0 0 0-.308 1.263.92.92 0 0 0 1.263.308l2.529-1.539v2.961a.92.92 0 0 0 .919.919.92.92 0 0 0 .919-.919v-2.954l2.529 1.539a.92.92 0 0 0 1.264-.307.92.92 0 0 0-.307-1.264l-2.635-1.6 2.635-1.6a.92.92 0 0 0 .308-1.271zm55.984 0a.92.92 0 0 0-1.264-.307l-2.529 1.539v-2.961a.92.92 0 0 0-.919-.92.92.92 0 0 0-.919.92v2.962l-2.528-1.539a.92.92 0 0 0-1.412.761.92.92 0 0 0 .457.809l2.635 1.6-2.635 1.6a.92.92 0 0 0-.308 1.263.92.92 0 0 0 1.263.308l2.528-1.539v2.961a.92.92 0 0 0 .92.92.92.92 0 0 0 .919-.92v-2.954l2.529 1.539a.92.92 0 0 0 .956-1.571l-2.636-1.6 2.636-1.6a.92.92 0 0 0 .308-1.271zm14.409 0a.92.92 0 0 0-1.264-.307l-2.529 1.539v-2.961a.92.92 0 0 0-1.379-.796.92.92 0 0 0-.459.796v2.962l-2.529-1.539a.92.92 0 0 0-1.397.764.92.92 0 0 0 .441.806l2.635 1.6-2.635 1.6a.92.92 0 0 0-.308 1.263.92.92 0 0 0 1.263.308l2.529-1.539v2.961a.92.92 0 0 0 1.379.796.92.92 0 0 0 .459-.796v-2.954l2.529 1.539a.92.92 0 1 0 .956-1.571l-2.636-1.6 2.636-1.6a.92.92 0 0 0 .308-1.271zm14.96 0a.92.92 0 0 0-1.264-.307l-2.529 1.539v-2.961a.92.92 0 0 0-.919-.92.92.92 0 0 0-.919.92v2.962l-2.529-1.539a.92.92 0 0 0-1.263.307.92.92 0 0 0 .307 1.263l2.636 1.6-2.636 1.6a.92.92 0 0 0-.307 1.264.92.92 0 0 0 1.264.307l2.529-1.539v2.961a.92.92 0 0 0 .92.92.92.92 0 0 0 .919-.92v-2.954l2.529 1.539a.92.92 0 0 0 1.263-.308.92.92 0 0 0-.308-1.263l-2.635-1.6 2.635-1.6a.92.92 0 0 0 .309-1.271zm13.947 0a.92.92 0 0 0-1.264-.307l-2.529 1.539v-2.961a.92.92 0 0 0-.92-.92.92.92 0 0 0-.919.92v2.962l-2.529-1.539a.92.92 0 0 0-1.263.307.92.92 0 0 0 .307 1.263l2.636 1.6-2.636 1.6a.92.92 0 0 0-.307 1.264.92.92 0 0 0 1.264.307l2.529-1.539v2.961a.92.92 0 0 0 .919.92.92.92 0 0 0 .919-.92v-2.954l2.529 1.539a.92.92 0 0 0 1.264-.307.92.92 0 0 0-.307-1.264l-2.635-1.6 2.635-1.6a.92.92 0 0 0 .308-1.271zm13.672 0a.92.92 0 0 0-1.264-.307l-2.529 1.539v-2.961a.92.92 0 0 0-1.379-.796.92.92 0 0 0-.459.796v2.962l-2.524-1.54a.92.92 0 0 0-1.263.307.92.92 0 0 0 .307 1.263l2.636 1.6-2.636 1.6a.92.92 0 0 0-.307 1.264.92.92 0 0 0 1.264.307l2.529-1.539v2.961a.92.92 0 0 0 1.379.796.92.92 0 0 0 .459-.796v-2.953l2.529 1.539a.92.92 0 1 0 .956-1.571l-2.636-1.6 2.636-1.6a.92.92 0 0 0 .303-1.271zm14.911 0a.92.92 0 0 0-1.264-.307l-2.529 1.539v-2.961a.92.92 0 0 0-1.379-.796.92.92 0 0 0-.459.796v2.962l-2.529-1.539a.92.92 0 0 0-1.263.307.92.92 0 0 0 .307 1.263l2.636 1.6-2.636 1.6a.92.92 0 0 0-.307 1.264.92.92 0 0 0 1.264.307l2.529-1.539v2.961a.92.92 0 0 0 1.379.796.92.92 0 0 0 .459-.796v-2.954l2.529 1.539a.92.92 0 0 0 .956-1.571l-2.636-1.6 2.636-1.6a.92.92 0 0 0 .308-1.271zm-85.534 0a.92.92 0 0 0-1.264-.307l-2.529 1.539v-2.961a.92.92 0 0 0-1.379-.796.92.92 0 0 0-.459.796v2.962l-2.529-1.539a.92.92 0 0 0-1.397.764.92.92 0 0 0 .441.806l2.635 1.6-2.635 1.6a.92.92 0 0 0-.308 1.263.92.92 0 0 0 1.263.308l2.528-1.539v2.961a.92.92 0 0 0 .92.92.92.92 0 0 0 .919-.92v-2.954l2.529 1.539a.92.92 0 0 0 .956-1.571l-2.636-1.6 2.636-1.6a.92.92 0 0 0 .308-1.271z" fill="#fff"/><g class="B H"><g stroke="#fff" stroke-width="3"><path d="M425.403 175.867l-46.115 46.115" class="F"/><circle cx="402.345" cy="198.924" r="8.384"/><path d="M431.691 198.924s-13.14 14.673-29.346 14.673S373 198.924 373 198.924s13.14-14.673 29.346-14.673 29.345 14.673 29.345 14.673z"/></g><path d="M248 213.67h32.008m-12.803-12.803l12.8 12.8-12.8 12.8" stroke="#000" stroke-width="5" class="F"/></g></svg>